<svg width="24" height="13" viewBox="0 0 24 13" fill="none" xmlns="http://www.w3.org/2000/svg">
<path d="M21.9962 0.652061L12.0002 10.3961L2.00415 0.652061C1.82556 0.477601 1.58581 0.37993 1.33615 0.37993C1.08649 0.37993 0.84674 0.477601 0.668152 0.652061C0.581677 0.736789 0.512977 0.83792 0.466077 0.949533C0.419177 1.06114 0.39502 1.18099 0.39502 1.30206C0.39502 1.42313 0.419177 1.54297 0.466077 1.65459C0.512977 1.7662 0.581677 1.86733 0.668152 1.95206L11.3022 12.3201C11.4889 12.5021 11.7394 12.604 12.0002 12.604C12.2609 12.604 12.5114 12.5021 12.6982 12.3201L23.3322 1.95406C23.4192 1.86927 23.4885 1.76789 23.5357 1.65591C23.583 1.54392 23.6073 1.42361 23.6073 1.30206C23.6073 1.18051 23.583 1.0602 23.5357 0.948214C23.4885 0.836231 23.4192 0.734852 23.3322 0.65006C23.1536 0.4756 22.9138 0.37793 22.6642 0.37793C22.4145 0.37793 22.1747 0.4756 21.9962 0.65006V0.652061Z" fill="#677689"/>
</svg>
